<svg viewBox="0 0 150.85 44.94" xml:space="preserve" width="150.85" height="44.94" xmlns="http://www.w3.org/2000/svg">
  <path fill="#fff" d="M63.13 6.44c1.31 1.35 1.97 3.04 1.97 5.08s-.66 3.73-1.98 5.08-2.99 2.02-4.99 2.02c-1.11 0-2.14-.22-3.08-.67a6.6 6.6 0 0 1-2.38-1.88v7.13h-1.72V4.7h1.19l.38 2.45c.42-.56.91-1.04 1.48-1.45.56-.41 1.2-.73 1.91-.95q1.065-.33 2.22-.33c2.01 0 3.68.67 5 2.02m-1.29 8.99c1.01-1.04 1.52-2.34 1.52-3.91s-.51-2.87-1.52-3.91S59.55 6.06 58 6.06s-2.84.52-3.87 1.57-1.54 2.34-1.54 3.89.51 2.85 1.54 3.89 2.32 1.57 3.87 1.57 2.83-.52 3.84-1.55M74.75 4.65v1.62h-1.34c-1.3 0-2.32.41-3.06 1.24s-1.11 1.94-1.11 3.34v7.51h-1.72V4.7h1.24l.28 2.35c.99-1.6 2.5-2.4 4.52-2.4zM76.09 0h1.95v2.12h-1.95zm.12 4.7h1.72v13.65h-1.72zm16.84 0-5.86 13.65h-1.54L79.63 4.7h1.79l4.98 11.4 4.88-11.4zm14.53 0v13.65h-1.42l-.2-2.45a6.35 6.35 0 0 1-2.4 2.01q-1.47.72-3.24.72c-2.01 0-3.68-.68-5.02-2.03q-2.01-2.04-2.01-5.07c0-2.04.67-3.73 2.01-5.08s3.01-2.02 5.02-2.02c1.2 0 2.28.24 3.25.72s1.77 1.15 2.41 2.01l.23-2.45h1.37zm-3.26 10.73c1.01-1.04 1.52-2.34 1.52-3.91s-.51-2.87-1.52-3.91-2.3-1.55-3.87-1.55q-1.515 0-2.76.72c-.83.48-1.47 1.14-1.93 1.97s-.7 1.76-.7 2.78.23 1.94.7 2.77c.46.83 1.11 1.48 1.93 1.96.83.48 1.74.72 2.76.72 1.57 0 2.86-.52 3.87-1.55m13.67 1.32v1.59h-1.69c-1.42 0-2.53-.41-3.34-1.23s-1.21-1.93-1.21-3.35V6.25h-2.33V5.9l3.77-3.87h.28v2.65h4.42v1.57h-4.42v7.46c0 .64.12 1.19.35 1.64.24.45.58.8 1.04 1.04s1 .35 1.64.35h1.49zm14.35-4.57h-12.01c.15 1.41.7 2.57 1.66 3.45.95.88 2.14 1.33 3.58 1.33 1.01 0 1.92-.24 2.72-.71s1.44-1.13 1.91-1.97h1.79c-.59 1.38-1.44 2.45-2.57 3.21-1.12.76-2.41 1.14-3.85 1.14-1.3 0-2.48-.31-3.54-.92a6.56 6.56 0 0 1-2.49-2.55q-.9-1.635-.9-3.63 0-3.03 1.98-5.07c1.32-1.36 2.97-2.03 4.94-2.03 2.01 0 3.64.68 4.92 2.05 1.27 1.36 1.91 3.05 1.91 5.06 0 .13-.01.35-.05.64m-9.25-5.57a4.9 4.9 0 0 0-1.82 1.59c-.47.68-.77 1.47-.88 2.36h10.29c-.2-1.36-.77-2.46-1.71-3.29s-2.07-1.24-3.4-1.24c-.91.01-1.73.2-2.48.58M56.81 39.68c-1.33 0-2.55-.31-3.64-.94a6.8 6.8 0 0 1-2.57-2.58c-.62-1.09-.93-2.31-.93-3.65s.31-2.56.93-3.65a6.75 6.75 0 0 1 2.57-2.57c1.09-.62 2.31-.93 3.65-.93 1.68 0 3.13.47 4.36 1.42s2.03 2.2 2.41 3.78h-2.78c-.36-.78-.9-1.4-1.6-1.84-.71-.45-1.51-.67-2.39-.67-1.23 0-2.25.43-3.07 1.28q-1.23 1.29-1.23 3.18c0 1.27.41 2.33 1.23 3.2.82.86 1.84 1.3 3.06 1.3.9 0 1.69-.23 2.39-.69.69-.46 1.23-1.11 1.6-1.94h2.83c-.38 1.6-1.19 2.88-2.43 3.85-1.25.97-2.71 1.45-4.39 1.45m19.98-13.99 2.16.01v13.64h-2.26l-.27-1.65c-.63.63-1.36 1.13-2.21 1.47s-1.76.52-2.74.52q-1.995 0-3.63-.93a6.6 6.6 0 0 1-2.55-2.58q-.93-1.65-.93-3.66 0-2.025.93-3.66a6.74 6.74 0 0 1 2.55-2.56q1.635-.93 3.63-.93c.99 0 1.91.18 2.76.53.86.35 1.6.86 2.22 1.51zm-8.3 10.03c.85.85 1.91 1.28 3.2 1.28 1.28 0 2.35-.43 3.19-1.28s1.26-1.92 1.26-3.2-.42-2.35-1.26-3.2-1.91-1.27-3.19-1.27-2.35.43-3.2 1.28-1.27 1.92-1.27 3.19c0 1.28.42 2.34 1.27 3.2m20.79-10.35q2.01 0 3.63.93a6.5 6.5 0 0 1 2.52 2.57c.6 1.09.91 2.32.91 3.66 0 2.05-.67 3.76-2.01 5.12s-3.02 2.05-5.05 2.05c-1.75 0-3.27-.55-4.54-1.65v6.19h-2.8V25.7h1.89l.53 1.68c.63-.64 1.36-1.14 2.2-1.49a7 7 0 0 1 2.72-.52m-3.42 10.35c.85.86 1.92 1.28 3.2 1.28s2.34-.43 3.18-1.28 1.26-1.92 1.26-3.2-.42-2.35-1.26-3.2-1.9-1.28-3.18-1.28-2.35.43-3.2 1.28c-.85.86-1.28 1.92-1.28 3.2s.42 2.35 1.28 3.2m18.39 1.09h1.56v2.54h-2.09c-1.5 0-2.68-.43-3.54-1.3s-1.3-2.06-1.3-3.56v-6.38h-2.44v-.54l4.75-5.05h.48v3.18h4.06v2.41h-4.04v6.16c0 .81.22 1.44.66 1.88s1.08.66 1.9.66m9.26 2.87c-1.33 0-2.55-.31-3.64-.94a6.8 6.8 0 0 1-2.57-2.58c-.62-1.09-.93-2.31-.93-3.65s.31-2.56.93-3.65a6.75 6.75 0 0 1 2.57-2.57c1.09-.62 2.31-.93 3.65-.93 1.68 0 3.13.47 4.36 1.42s2.03 2.2 2.41 3.78h-2.78c-.36-.78-.9-1.4-1.6-1.84-.71-.45-1.51-.67-2.39-.67-1.23 0-2.25.43-3.07 1.28q-1.23 1.29-1.23 3.18c0 1.27.41 2.33 1.23 3.2s1.84 1.3 3.06 1.3c.9 0 1.69-.23 2.39-.69.69-.46 1.23-1.11 1.6-1.94h2.83c-.38 1.6-1.19 2.88-2.43 3.85-1.26.97-2.72 1.45-4.39 1.45m15.79-14.29c1.59 0 2.84.52 3.77 1.55s1.39 2.43 1.39 4.19v8.22h-2.8V31.7c0-1.24-.26-2.18-.79-2.83q-.795-.96-2.34-.96c-1.06 0-1.94.39-2.63 1.16s-1.04 1.77-1.04 2.97v7.3h-2.8V20.82h2.8v6.44q.795-.885 1.95-1.38c.76-.32 1.59-.49 2.49-.49m19.39.3 2.16.01v13.64h-2.26l-.27-1.65c-.63.63-1.36 1.13-2.21 1.47-.85.35-1.76.52-2.74.52q-1.995 0-3.63-.93a6.6 6.6 0 0 1-2.55-2.58q-.93-1.65-.93-3.66 0-2.025.93-3.66a6.74 6.74 0 0 1 2.55-2.56q1.635-.93 3.63-.93c.99 0 1.91.18 2.76.53.86.35 1.6.86 2.22 1.51zm-8.31 10.03c.85.85 1.91 1.28 3.2 1.28 1.28 0 2.35-.43 3.19-1.28s1.26-1.92 1.26-3.2-.42-2.35-1.26-3.2-1.91-1.27-3.19-1.27-2.35.43-3.2 1.28-1.27 1.92-1.27 3.19c0 1.28.43 2.34 1.27 3.2M0 2.95v30.62l4.29 2.48V7.8h30.83v23.29l-15.41 8.9-6.83-3.94V31.1l6.83 3.94 11.12-6.42V12.86H8.58v25.66l11.12 6.42 19.7-11.37V2.95Zm12.87 14.86h13.66v8.32l-6.83 3.94-6.83-3.94z"/>
</svg>
